<?xml version="1.0" encoding="UTF-8"?>
<svg id="Layer_1" xmlns="http://www.w3.org/2000/svg" version="1.1" viewBox="0 0 288 288">
  <!-- Generator: Adobe Illustrator 29.0.1, SVG Export Plug-In . SVG Version: 2.1.0 Build 192)  -->
  <defs>
    <style>
      .st0 {
        fill: #fff;
      }

      .st1 {
        fill: #77846e;
        stroke: #77846e;
        stroke-miterlimit: 10;
      }

      .st2 {
        fill: #4f5a4a;
      }

      .st3 {
        fill: #721b12;
      }
    </style>
  </defs>
  <path class="st1" d="M217.05,37.01c-.31-.23-.72-.1-1.06.09-.43.24-.81.55-1.07.98-1.08,1.84-2.18,3.66-3.22,5.52-1.75,3.16-3.45,6.35-5.18,9.53-2.19,4-4.39,8-6.59,11.99-.59,1.07-1.23,2.11-2.2,2.87-.48.37-1.07.52-1.63.32-.41-.15-.69-.56-.66-1.03.02-.36.11-.74.26-1.07,1.82-3.85,3.75-7.65,5.76-11.41,2.47-4.63,4.98-9.24,7.48-13.86,1.07-1.97,2.16-3.92,3.25-5.88.33-.59.32-1.16-.05-1.7-.41-.6-1.57-.54-2.08.41-1.51,2.78-3.08,5.52-4.63,8.27-1.26,2.25-2.51,4.51-3.78,6.77-1.2,2.13-2.4,4.26-3.63,6.37-1.33,2.29-2.65,4.58-4.04,6.84-.67,1.1-1.24,2.28-2.48,2.95-1.07.58-2,.18-2.21-1.01-.18-1.02.36-1.84.76-2.67,2.03-4.15,4.38-8.13,6.58-12.18,2.62-4.83,5.56-9.46,8.18-14.29.64-1.17,1.5-2.24,1.72-3.63.08-.49.17-.94-.29-1.25-.46-.31-.91-.12-1.37.1-.29.14-.43.38-.61.6-1.08,1.3-1.81,2.83-2.73,4.24-1.17,1.77-2.19,3.64-3.2,5.52-.82,1.52-1.79,2.96-2.67,4.44-1.24,2.11-2.46,4.23-3.7,6.34-1.18,2.01-2.36,4.02-3.57,6.01-.83,1.36-1.64,2.75-2.67,3.98-.45.53-1.61.83-2.12.55-.73-.41-.69-1.06-.53-1.74.06-.25.08-.52.2-.74.7-1.35,1.4-2.7,2.14-4.02,1.14-2,2.31-3.99,3.48-5.97,1.1-1.86,2.21-3.71,3.32-5.57,1.05-1.76,2.1-3.51,3.15-5.27,1.28-2.15,2.57-4.3,3.81-6.47.64-1.12,1.3-2.22,1.72-3.45.13-.4.14-.83-.22-1.11-.34-.27-.7-.25-1.11,0-.2.13-.38.25-.51.44-.91,1.32-1.93,2.57-2.69,3.97-.92,1.69-2.11,3.18-3.13,4.8-1.03,1.65-2.09,3.28-3.21,4.88-1.48,2.11-2.81,4.32-4.22,6.47-1.18,1.79-2.42,3.55-3.6,5.35-1.73,2.63-3.47,5.27-5.15,7.94-1.08,1.71-1.53,3.63-1.4,5.64.14,2.18,1.33,4.06,1.92,6.12.45,1.54.69,3.09.34,4.71-.3,1.34-.91,2.52-1.62,3.67-1.23,1.99-2.46,3.98-3.72,5.95-.94,1.46-1.84,2.95-2.84,4.38-1.11,1.58-2.1,3.26-3.16,4.88-1.01,1.56-2.06,3.09-3.07,4.65-1.11,1.7-2.19,3.41-3.31,5.1-.8,1.21-1.69,2.37-2.43,3.62-1.32,2.21-2.82,4.31-4.21,6.48-.7,1.1-1.48,2.16-2.17,3.26-1.07,1.72-2.15,3.43-3.29,5.11-.71,1.04-1.39,2.11-2.07,3.17-3.18-6.72-6.2-13.36-9.14-19.66-.14,0-.27,0-.41,0-.14,0-.29.01-.43.03-.08,0-.16.02-.25.03-.27.06-.53.12-.78.21-.12.04-.23.09-.35.14,0,0,0,0,0,0-.07.04-.15.08-.22.12-.12.07-.24.14-.36.22-.08.06-.44.34-.14.09-.28.23-.54.39-.91.42-.36.03-.72-.13-1-.35-.26-.21-.43-.59-.45-.91-.02-.3.09-.76.33-.97,1.07-.9,2.35-1.45,3.75-1.61-6.1-12.98-11.88-24.29-18.06-31.55-2.76,1.88-5.31,4.04-7.6,6.48-1.16,1.24-3.19-.56-2.03-1.8,2.35-2.5,4.97-4.74,7.8-6.7-4.98-5.12-10.24-7.52-16.15-5.99-.22.14-.42.29-.63.44-1.46-9.69-4.26-23.76-8.4-25.35-1.57,0-.88,5.32-.16,8.01-6.95-8.44-7.31-23.85-12.62-26.95-5.52-3.22-3.27,16.71-.05,18.82-5.41-4.36-17.56-9.61-22.84-7.63-4.86,1.82,26.89,16.95,28.59,17.76-1.1-.52-14.18-6.62-15.17-2.9,14.14,7.21,22.7,15.51,27.33,21.08-7.77,8.33-1.32,18.77,11.1,32.55,1.91-2.57,4.73-4.48,7.93-5.19.71-.16,1.46.13,1.72.86.22.64-.13,1.5-.84,1.66-2.92.65-5.37,2.35-6.93,4.72,7.17,7.78,16.02,16.6,25.18,26.65.08-.03.16-.04.24-.07.16-.06.32-.13.47-.2,0,0,0,0,.01,0,.06-.03.12-.06.19-.09.28-.14.55-.29.82-.44.28-.17.55-.34.82-.53.14-.1.27-.2.41-.3.05-.04.1-.08.15-.12,0,0,0,0,0,0,0,0,.01,0,.02-.02,0,0,0,0,.01,0,.05-.04.05-.04.02-.01.56-.46,1.26-.55,1.87-.05.52.43.65,1.42.12,1.87-.99.84-2.08,1.53-3.25,2.07,1.4,1.55,2.8,3.14,4.2,4.76-.42.65-.84,1.29-1.23,1.96-1.55,2.63-3.23,5.18-4.66,7.88-1.11,2.08-2.37,4.07-3.35,6.21-1.16,2.51-2.19,5.06-2.34,7.87.1.28.07.61.25.87l.09.7c-.08.18-.19.36-.11.57.03.24.05.48.08.72.46,2.19,2.84,2.82,4.2,2.43,2.32-.67,4.18-2.05,5.68-3.92,1.19-1.47,2.24-3.03,3.15-4.7,1.48-2.7,3.06-5.34,4.57-8.02.56-1,1.12-2,1.68-3,2.93,3.66,5.83,7.46,8.63,11.41,1.35,1.9,5.35-.13,4.16-2.15-3.12-5.29-6.04-10.78-8.84-16.32,1.09-1.93,2.18-3.86,3.26-5.8,2.02-3.64,4-7.3,6.01-10.94,2.39-4.35,4.79-8.7,7.18-13.05,2.31-4.23,4.64-8.45,6.9-12.71,1.56-2.94,3.2-5.84,4.85-8.73,1.53-2.68,2.98-5.42,4.91-7.86.79-1,1.78-1.65,3-2.03,1.54-.48,3.15-.63,4.69-1.12,2.2-.7,4.07-1.87,5.54-3.65.85-1.03,1.34-2.28,2-3.42,1.31-2.26,2.65-4.51,3.92-6.8,1.77-3.19,3.48-6.4,5.21-9.61,2.21-4.11,4.46-8.21,6.61-12.36.62-1.19,1.29-2.4,1.45-3.81.06-.51-.05-.88-.39-1.14Z"/>
  <rect class="st3" x="35.36" y="103.92" width="217.27" height="108.13" rx="5.63" ry="5.63"/>
  <g>
    <path class="st0" d="M68.57,154.91v-32.9h23.55v3.2h-19.93v11.75h13.07v3.15h-13.07v14.81h-3.62Z"/>
    <path class="st0" d="M98.93,154.91l13.63-32.9h4.37l13.54,32.9h-3.95l-4.14-10.34h-15.51l-4.18,10.34h-3.76ZM108.14,141.47h12.97l-6.49-16.12-6.49,16.12Z"/>
    <path class="st0" d="M145.41,154.91v-32.9h14.1c2.16,0,4.04.39,5.64,1.17,1.6.78,2.84,1.88,3.74,3.29.89,1.41,1.34,3.07,1.34,4.98,0,2.16-.63,4.02-1.9,5.57-1.27,1.55-2.97,2.64-5.1,3.27l7.38,14.62h-3.99l-7.05-14.15h-10.53v14.15h-3.62ZM149.03,137.71h10.25c2.22,0,4-.56,5.33-1.69s2-2.65,2-4.56-.67-3.38-2-4.51-3.11-1.69-5.33-1.69h-10.25v12.46Z"/>
    <path class="st0" d="M186.86,154.91v-32.9h5.08l11.23,23.36,11.19-23.36h5.08v32.9h-3.43v-28.76l-12.88,26.41-12.88-26.37v28.72h-3.38Z"/>
    <path class="st0" d="M74.59,174.82l-2.99,9.9c-.41,1.3-.62,2.28-.65,2.95,0,.22.05.41.16.58.11.17.29.25.56.25.43,0,.89-.16,1.37-.49.48-.32.94-.71,1.39-1.15.44-.44.84-.9,1.19-1.37.35-.47.61-.83.77-1.1l1.04.61c-.41.82-.92,1.6-1.55,2.36s-1.28,1.42-1.98,2c-.7.58-1.4,1.04-2.11,1.39-.71.35-1.35.52-1.93.52-.84,0-1.45-.18-1.82-.54-.37-.36-.56-.96-.56-1.8,0-.48.08-1.13.25-1.94.17-.82.46-1.93.86-3.35l2.66-8.82h-3.1l.47-1.66h3.13l1.87-6.19h3.31l-1.87,6.19h3.92l-.5,1.66h-3.92Z"/>
    <path class="st0" d="M86.9,191.27c-.82,0-1.58-.16-2.29-.49s-1.33-.8-1.85-1.42-.95-1.39-1.26-2.29c-.31-.9-.47-1.91-.47-3.04,0-1.56.29-3.1.88-4.61.59-1.51,1.36-2.86,2.32-4.03.96-1.17,2.06-2.12,3.29-2.84,1.24-.72,2.51-1.08,3.83-1.08.86,0,1.66.16,2.39.49s1.36.79,1.87,1.4c.52.61.92,1.34,1.22,2.2.3.85.45,1.79.45,2.83,0,1.51-.3,3.04-.9,4.57-.6,1.54-1.39,2.92-2.36,4.14-.97,1.22-2.08,2.23-3.33,3.01-1.25.78-2.52,1.17-3.82,1.17ZM87.12,189.47c.82,0,1.63-.42,2.43-1.26.8-.84,1.52-1.9,2.16-3.19.64-1.28,1.15-2.68,1.55-4.19.4-1.51.59-2.95.59-4.32,0-1.27-.22-2.15-.67-2.63-.44-.48-1.05-.72-1.82-.72-.53,0-1.06.19-1.6.56-.54.37-1.05.88-1.53,1.53-.48.65-.93,1.39-1.35,2.23-.42.84-.79,1.73-1.1,2.66-.31.94-.55,1.89-.72,2.86-.17.97-.25,1.9-.25,2.79,0,1.34.22,2.29.65,2.84.43.55.98.83,1.66.83Z"/>
    <path class="st0" d="M118.26,190.91v-22.72h-9.11v-2.48h20.99v2.48h-9.11v22.72h-2.77Z"/>
    <path class="st0" d="M127.3,190.91l10.44-25.2h3.35l10.37,25.2h-3.02l-3.17-7.92h-11.88l-3.2,7.92h-2.88ZM134.35,180.62h9.94l-4.97-12.35-4.97,12.35Z"/>
    <path class="st0" d="M155.27,190.91v-25.2h10.22c1.63,0,3.04.26,4.23.79,1.19.53,2.11,1.28,2.75,2.25.65.97.97,2.12.97,3.44s-.34,2.42-1.03,3.38c-.68.96-1.63,1.69-2.83,2.2,1.51.46,2.71,1.21,3.58,2.27.88,1.06,1.31,2.32,1.31,3.78s-.35,2.69-1.06,3.76c-.71,1.07-1.7,1.89-2.99,2.47-1.28.58-2.79.86-4.52.86h-10.66ZM158.04,176.69h7.31c1.63,0,2.93-.38,3.91-1.15.97-.77,1.46-1.81,1.46-3.13s-.49-2.36-1.46-3.13c-.97-.77-2.27-1.15-3.91-1.15h-7.31v8.57ZM158.04,188.5h7.67c1.82,0,3.28-.43,4.36-1.3,1.08-.86,1.62-2.02,1.62-3.46s-.54-2.59-1.62-3.46-2.53-1.3-4.36-1.3h-7.67v9.5Z"/>
    <path class="st0" d="M179.82,190.91v-25.2h2.77v22.72h15.01v2.48h-17.78Z"/>
    <path class="st0" d="M202.46,190.91v-25.2h18.04v2.45h-15.26v8.82h9.97v2.41h-9.97v9.07h15.41v2.45h-18.18Z"/>
  </g>
  <g>
    <path class="st2" d="M50.55,235.59c-.49.46-1.19.83-2.09,1.1-.9.27-1.84.41-2.8.41-1.97,0-3.6-.64-4.88-1.92-1.28-1.28-1.92-2.93-1.92-4.95,0-1.13.24-2.25.71-3.36.48-1.11,1.22-2.02,2.23-2.75,1.01-.73,2.3-1.09,3.86-1.09,1.15,0,2.13.16,2.94.48.81.32,1.46.7,1.93,1.13l.36,2.96-1.91.19-.34-1.89c-.84-.55-1.85-.82-3.02-.82-1.29,0-2.32.45-3.1,1.34-.78.9-1.17,2.12-1.17,3.67s.41,2.85,1.24,3.69c.83.83,1.91,1.25,3.25,1.25,1.12,0,2.04-.2,2.75-.59l.34-2.04,1.91.19-.29,2.98Z"/>
    <path class="st2" d="M62.12,232.18c0,1.47-.47,2.66-1.4,3.56-.93.9-2.14,1.35-3.62,1.35s-2.6-.43-3.48-1.3-1.31-2.04-1.31-3.53c0-1.37.41-2.55,1.24-3.54.83-.99,2.05-1.48,3.67-1.48s2.86.49,3.67,1.47c.81.98,1.22,2.14,1.22,3.46ZM59.79,232.12c0-1.01-.24-1.78-.72-2.31-.48-.53-1.11-.8-1.88-.8s-1.42.28-1.87.85c-.45.57-.67,1.33-.67,2.28,0,.9.21,1.65.64,2.27.43.62,1.06.92,1.9.92s1.45-.3,1.91-.89c.46-.59.69-1.37.69-2.32Z"/>
    <path class="st2" d="M80.73,236.89h-4.16v-1.72h.52v-3.7c0-.9-.16-1.53-.47-1.9s-.76-.56-1.33-.56c-.74,0-1.28.25-1.63.76-.34.5-.52,1.08-.54,1.72v3.67h1.41v1.72h-4.16v-1.72h.5v-3.7c0-.9-.16-1.53-.47-1.9-.31-.37-.75-.56-1.31-.56-.73,0-1.27.25-1.62.75-.35.5-.53,1.07-.55,1.71v3.7h1.76v1.72h-5.42v-1.72h1.41v-5.96h-1.39v-1.74h3.63v1.55c.29-.52.69-.94,1.18-1.26.49-.32,1.08-.48,1.79-.48s1.33.17,1.89.51c.56.34.95.88,1.18,1.61.28-.64.69-1.16,1.22-1.54s1.18-.58,1.95-.58c.85,0,1.6.27,2.25.82.64.55.97,1.4.97,2.56v4.51h1.39v1.72Z"/>
    <path class="st2" d="M99.02,236.89h-4.16v-1.72h.52v-3.7c0-.9-.16-1.53-.47-1.9s-.76-.56-1.33-.56c-.74,0-1.28.25-1.63.76-.34.5-.52,1.08-.54,1.72v3.67h1.41v1.72h-4.16v-1.72h.5v-3.7c0-.9-.16-1.53-.47-1.9-.31-.37-.75-.56-1.31-.56-.73,0-1.27.25-1.62.75-.35.5-.53,1.07-.55,1.71v3.7h1.76v1.72h-5.42v-1.72h1.41v-5.96h-1.39v-1.74h3.63v1.55c.29-.52.69-.94,1.18-1.26.49-.32,1.08-.48,1.79-.48s1.33.17,1.89.51c.56.34.95.88,1.18,1.61.28-.64.69-1.16,1.22-1.54s1.18-.58,1.95-.58c.85,0,1.6.27,2.25.82.64.55.97,1.4.97,2.56v4.51h1.39v1.72Z"/>
    <path class="st2" d="M111.03,236.89h-3.72v-1.58c-.62,1.18-1.65,1.76-3.11,1.76-.9,0-1.67-.27-2.32-.81-.65-.54-.98-1.4-.98-2.57v-4.52h-1.41v-1.72h3.65v5.42c0,.9.16,1.53.48,1.9.32.37.78.56,1.36.56.7,0,1.26-.25,1.67-.74.41-.49.63-1.07.64-1.74v-3.67h-1.68v-1.72h3.93v7.71h1.47v1.72Z"/>
    <path class="st2" d="M123.42,236.89h-5.04v-1.72h1.39v-3.7c0-.9-.16-1.53-.48-1.9-.32-.37-.77-.56-1.34-.56-.71,0-1.28.23-1.69.69s-.63,1.03-.64,1.7v3.76h1.41v1.72h-5.06v-1.72h1.41v-5.96h-1.47v-1.74h3.72v1.53c.66-1.15,1.7-1.72,3.13-1.72.9,0,1.67.27,2.31.82.64.55.97,1.4.97,2.56v4.51h1.41v1.72Z"/>
    <path class="st2" d="M129.38,236.89h-5.04v-1.72h1.41v-5.96h-1.49v-1.74h3.72v7.71h1.41v1.72ZM125.62,225.51v-2.48h2.29v2.48h-2.29Z"/>
    <path class="st2" d="M137.99,234.12c-.27,1.99-1.37,2.98-3.32,2.98-1.01,0-1.81-.27-2.4-.8s-.89-1.27-.89-2.23v-4.96h-1.39v-1.66h1.39v-2.92h2.25v2.92h3.51v1.66h-3.51v4.6c0,.99.43,1.49,1.3,1.49.24,0,.5-.09.8-.26.29-.17.5-.63.61-1.35l1.66.53Z"/>
    <path class="st2" d="M148.64,229.18h-.99l-3.15,7.71-1.05,2.71h1.39v1.76h-5.04v-1.76h1.6l.92-2.62-3.34-7.79h-1.03v-1.72h4.64v1.72h-1.2l2.18,5.1h.13l1.76-5.1h-1.07v-1.72h4.24v1.72Z"/>
    <path class="st2" d="M163.3,232.88c0,1.36-.47,2.4-1.42,3.13-.95.73-2.2,1.09-3.75,1.09-.92,0-1.82-.11-2.68-.34-.86-.22-1.54-.55-2.05-.97l.38-3.13,1.87.19-.04,1.68c.46.24.88.39,1.27.45.38.06.75.09,1.08.09.81,0,1.49-.13,2.03-.39.54-.26.81-.78.81-1.56,0-.85-.31-1.42-.92-1.71-.62-.29-1.32-.51-2.12-.66-.64-.13-1.29-.29-1.95-.5s-1.2-.56-1.64-1.05c-.43-.49-.65-1.21-.65-2.16,0-1.43.49-2.45,1.46-3.08.97-.62,2.06-.93,3.27-.93.84,0,1.66.13,2.45.38s1.41.58,1.86.99l.13,2.88-1.87.17-.19-1.76c-.39-.22-.79-.38-1.18-.46s-.77-.13-1.13-.13c-.66,0-1.2.13-1.64.4-.43.27-.65.69-.65,1.28,0,.69.27,1.15.81,1.4.54.25,1.14.45,1.82.6.57.13,1.22.29,1.95.5.73.21,1.36.58,1.9,1.12s.81,1.37.81,2.49Z"/>
    <path class="st2" d="M175.83,236.89h-3.72v-1.58c-.62,1.18-1.65,1.76-3.11,1.76-.9,0-1.67-.27-2.32-.81-.65-.54-.98-1.4-.98-2.57v-4.52h-1.41v-1.72h3.65v5.42c0,.9.16,1.53.48,1.9s.78.56,1.37.56c.7,0,1.26-.25,1.67-.74.41-.49.63-1.07.64-1.74v-3.67h-1.68v-1.72h3.93v7.71h1.47v1.72Z"/>
    <path class="st2" d="M187.38,231.93c0,1.34-.35,2.54-1.06,3.59-.71,1.05-1.8,1.58-3.27,1.58-1.36,0-2.35-.49-2.96-1.47v3.97h1.87v1.76h-5.52v-1.76h1.41v-10.42h-1.47v-1.72h3.72v1.87c.27-.56.65-1.04,1.17-1.45s1.2-.61,2.07-.61c1.2,0,2.18.41,2.93,1.23.75.82,1.12,1.96,1.12,3.43ZM185.05,232.16c0-1.01-.23-1.77-.69-2.3-.46-.52-1.05-.79-1.76-.79-.76,0-1.35.29-1.79.86-.43.57-.67,1.25-.69,2.02l-.02.73c0,.78.23,1.42.68,1.89.45.48,1.04.71,1.75.71.8,0,1.42-.28,1.86-.84.44-.56.66-1.32.66-2.29Z"/>
    <path class="st2" d="M199.21,231.93c0,1.34-.35,2.54-1.06,3.59-.71,1.05-1.8,1.58-3.27,1.58-1.36,0-2.35-.49-2.96-1.47v3.97h1.87v1.76h-5.52v-1.76h1.41v-10.42h-1.47v-1.72h3.72v1.87c.27-.56.65-1.04,1.17-1.45s1.2-.61,2.07-.61c1.2,0,2.18.41,2.93,1.23.75.82,1.12,1.96,1.12,3.43ZM196.88,232.16c0-1.01-.23-1.77-.69-2.3-.46-.52-1.05-.79-1.76-.79-.76,0-1.35.29-1.79.86-.43.57-.67,1.25-.69,2.02l-.02.73c0,.78.23,1.42.68,1.89.45.48,1.04.71,1.75.71.8,0,1.42-.28,1.86-.84.44-.56.66-1.32.66-2.29Z"/>
    <path class="st2" d="M210.15,232.18c0,1.47-.46,2.66-1.4,3.56-.93.9-2.14,1.35-3.62,1.35s-2.6-.43-3.48-1.3-1.31-2.04-1.31-3.53c0-1.37.41-2.55,1.24-3.54s2.05-1.48,3.67-1.48,2.86.49,3.67,1.47c.81.98,1.22,2.14,1.22,3.46ZM207.82,232.12c0-1.01-.24-1.78-.72-2.31-.48-.53-1.11-.8-1.88-.8s-1.42.28-1.87.85c-.45.57-.67,1.33-.67,2.28,0,.9.21,1.65.64,2.27.43.62,1.06.92,1.9.92s1.45-.3,1.91-.89c.46-.59.69-1.37.69-2.32Z"/>
    <path class="st2" d="M217.06,227.31c.63,0,1.22.18,1.76.53l.4,2.94-1.74.21-.36-1.62c-.28-.14-.52-.21-.71-.21-.39,0-.73.16-1.02.48-.29.32-.43.77-.43,1.34v4.18h1.87v1.72h-5.52v-1.72h1.41v-5.96h-1.47v-1.74h3.55v1.76c.17-.53.44-.98.81-1.35.37-.37.86-.56,1.46-.56Z"/>
    <path class="st2" d="M228,234.12c-.27,1.99-1.37,2.98-3.32,2.98-1.01,0-1.81-.27-2.4-.8s-.89-1.27-.89-2.23v-4.96h-1.39v-1.66h1.39v-2.92h2.25v2.92h3.51v1.66h-3.51v4.6c0,.99.43,1.49,1.3,1.49.24,0,.5-.09.8-.26.29-.17.5-.63.61-1.35l1.66.53Z"/>
    <path class="st2" d="M237.43,234.01c-.08.83-.49,1.55-1.22,2.16-.73.62-1.73.92-3,.92-1.37,0-2.5-.4-3.38-1.21-.88-.8-1.32-1.99-1.32-3.56,0-1.44.4-2.65,1.21-3.61s1.93-1.45,3.37-1.45c1.3,0,2.33.39,3.1,1.17.76.78,1.15,1.76,1.17,2.95,0,.39-.04.81-.13,1.26h-6.36c.13,1.76.97,2.65,2.52,2.65.73,0,1.25-.17,1.56-.53.31-.35.52-.72.62-1.11l1.87.36ZM235.03,231.26c.06-.56-.07-1.09-.39-1.58-.32-.5-.84-.75-1.59-.75-.67,0-1.18.22-1.53.67-.35.45-.57,1-.65,1.66h4.16Z"/>
    <path class="st2" d="M249.48,236.89h-3.63v-1.81c-.28.55-.68,1.02-1.21,1.42-.53.4-1.21.6-2.07.6-1.23,0-2.21-.42-2.93-1.26-.72-.84-1.08-2-1.08-3.46,0-1.34.34-2.53,1.02-3.56s1.75-1.54,3.2-1.54c.74,0,1.37.15,1.88.45s.91.7,1.19,1.21v-4.77h-2.04v-1.72h4.28v12.73h1.39v1.72ZM245.85,232.35v-.71c-.01-.78-.25-1.41-.71-1.87s-1.03-.69-1.7-.69c-.76,0-1.37.28-1.84.85-.47.57-.7,1.34-.7,2.32s.23,1.75.7,2.27c.47.52,1.03.78,1.69.78.77,0,1.39-.32,1.85-.95s.7-1.29.71-2Z"/>
    <path class="st2" d="M104.21,263.89h-5.23v-2h1.39l-.69-1.87h-5.1l-.74,1.87h1.53v2h-5.17v-2h1.26l4.12-9.66h-2v-2h4.39l4.91,11.65h1.32v2ZM99.04,258.32l-1.78-4.75h-.13l-1.89,4.75h3.8Z"/>
    <path class="st2" d="M115.34,256.2h-1.36v7.33c0,1.5-.42,2.71-1.25,3.63-.83.92-2.08,1.39-3.73,1.39-.98,0-1.9-.21-2.75-.63-.85-.42-1.46-1.14-1.81-2.16l1.74-.95c.59,1.29,1.54,1.93,2.86,1.93.78,0,1.43-.28,1.93-.84.5-.56.76-1.36.76-2.39v-1.41c-.27.5-.65.93-1.14,1.29-.5.36-1.18.54-2.05.54-1.11,0-2.06-.39-2.87-1.17-.81-.78-1.21-1.91-1.21-3.39,0-1.34.36-2.53,1.08-3.56s1.77-1.54,3.14-1.54,2.44.55,3.04,1.66v-1.47h3.61v1.74ZM111.72,259.39v-.76c0-.78-.22-1.41-.67-1.87-.45-.46-1.01-.69-1.68-.69-.78,0-1.39.28-1.81.85-.42.57-.63,1.33-.63,2.3s.21,1.73.63,2.2c.42.47.95.7,1.6.7.8,0,1.42-.28,1.88-.84s.68-1.19.68-1.89Z"/>
    <path class="st2" d="M121.99,254.31c.63,0,1.22.18,1.76.53l.4,2.94-1.74.21-.36-1.62c-.28-.14-.52-.21-.71-.21-.39,0-.73.16-1.02.48-.29.32-.43.77-.43,1.34v4.18h1.87v1.72h-5.52v-1.72h1.41v-5.96h-1.47v-1.74h3.55v1.76c.17-.53.44-.98.81-1.35.37-.37.86-.56,1.46-.56Z"/>
    <path class="st2" d="M130.46,263.89h-5.04v-1.72h1.41v-5.96h-1.49v-1.74h3.72v7.71h1.41v1.72ZM126.7,252.51v-2.48h2.29v2.48h-2.29Z"/>
    <path class="st2" d="M140.2,260.51c-.1.84-.47,1.65-1.11,2.43-.64.78-1.68,1.17-3.11,1.17-1.34,0-2.44-.41-3.29-1.22-.85-.81-1.27-2-1.27-3.55s.44-2.75,1.31-3.67c.87-.92,2.02-1.39,3.43-1.39.56,0,1.12.07,1.68.21.56.14,1.11.37,1.66.69l.38,2.65-1.81.19-.31-1.55c-.52-.25-1.06-.38-1.64-.38-1.57,0-2.35,1.05-2.35,3.15s.8,3.07,2.42,3.07c1.18,0,1.88-.71,2.12-2.14l1.89.36Z"/>
    <path class="st2" d="M152.44,263.89h-3.72v-1.58c-.62,1.18-1.65,1.76-3.11,1.76-.9,0-1.67-.27-2.32-.81-.65-.54-.98-1.4-.98-2.57v-4.52h-1.41v-1.72h3.65v5.42c0,.9.16,1.53.48,1.9.32.37.78.56,1.37.56.7,0,1.26-.25,1.67-.74.41-.49.63-1.07.64-1.74v-3.67h-1.68v-1.72h3.93v7.71h1.47v1.72Z"/>
    <path class="st2" d="M158.2,263.89h-5.04v-1.72h1.41v-11h-1.49v-1.72h3.72v12.73h1.41v1.72Z"/>
    <path class="st2" d="M166.8,261.12c-.27,1.99-1.37,2.98-3.32,2.98-1.01,0-1.81-.27-2.4-.8s-.89-1.27-.89-2.23v-4.96h-1.39v-1.66h1.39v-2.92h2.25v2.92h3.51v1.66h-3.51v4.6c0,.99.43,1.49,1.3,1.49.24,0,.5-.09.8-.26.29-.17.5-.63.61-1.35l1.66.53Z"/>
    <path class="st2" d="M178.52,263.89h-3.72v-1.58c-.62,1.18-1.65,1.76-3.11,1.76-.9,0-1.67-.27-2.32-.81-.65-.54-.98-1.4-.98-2.57v-4.52h-1.41v-1.72h3.65v5.42c0,.9.16,1.53.48,1.9s.78.56,1.37.56c.7,0,1.26-.25,1.67-.74.41-.49.63-1.07.64-1.74v-3.67h-1.68v-1.72h3.93v7.71h1.47v1.72Z"/>
    <path class="st2" d="M185.2,254.31c.63,0,1.22.18,1.76.53l.4,2.94-1.74.21-.36-1.62c-.28-.14-.52-.21-.71-.21-.39,0-.73.16-1.02.48-.29.32-.43.77-.43,1.34v4.18h1.87v1.72h-5.52v-1.72h1.41v-5.96h-1.47v-1.74h3.55v1.76c.17-.53.44-.98.81-1.35.37-.37.86-.56,1.46-.56Z"/>
    <path class="st2" d="M197.42,261.01c-.08.83-.49,1.55-1.22,2.16-.73.62-1.73.92-3,.92-1.37,0-2.5-.4-3.38-1.21-.88-.8-1.32-1.99-1.32-3.56,0-1.44.4-2.65,1.21-3.61s1.93-1.45,3.37-1.45c1.3,0,2.33.39,3.1,1.17.76.78,1.15,1.76,1.17,2.95,0,.39-.04.81-.13,1.26h-6.36c.13,1.76.97,2.65,2.52,2.65.73,0,1.25-.17,1.56-.53.31-.35.52-.72.62-1.11l1.87.36ZM195.03,258.26c.06-.56-.07-1.09-.39-1.58-.32-.5-.84-.75-1.59-.75-.67,0-1.18.22-1.53.67-.35.45-.57,1-.65,1.66h4.16Z"/>
  </g>
</svg>